{
	"asset": {
		"generator": "Blocks",
		"version": "1.0.4",
		"copyright": "Unknown"
	},
	"buffers": {
		"model": {
			"byteLength": 620684,
			"type": "arraybuffer",
			"uri": "model.bin"
		}
	},
	"accessors": {
		"accessor_position_m0-PolyPaper21_-616118": {
			"bufferView": "vec3BufferView",
			"byteOffset": 0,
			"byteStride": 12,
			"componentType": 5126,
			"count": 4254,
			"max": [ 1.555722, 3.889195, 0.2704358 ],
			"min": [ -1.402858, 2.249885, -2.8791 ],
			"type": "VEC3"
		 },
		"accessor_normal_m0-PolyPaper21_-616118": {
			"bufferView": "vec3BufferView",
			"byteOffset": 51048,
			"byteStride": 12,
			"componentType": 5126,
			"count": 4254,
			"max": [ 0.9865507, 0.9998902, 0.9983161 ],
			"min": [ -0.9978184, -0.9998903, -0.9995881 ],
			"type": "VEC3"
		 },
		"accessor_color_m0-PolyPaper21_-616118": {
			"bufferView": "vec4BufferView",
			"byteOffset": 0,
			"byteStride": 16,
			"componentType": 5126,
			"count": 4254,
			"max": [ 1, 1, 1, 1 ],
			"min": [ 0.01176471, 0.1019608, 0.1019608, 1 ],
			"type": "VEC4"
		 },
		"accessor_indices_0_m0-PolyPaper21_-616118": {
			"bufferView": "ushortBufferView",
			"byteOffset": 0,
			"byteStride": 0,
			"componentType": 5123,
			"count": 6426,
			"max": [ 4253 ],
			"min": [ 0 ],
			"type": "SCALAR"
		 },
		"accessor_position_m1-PolyPaper21_-614356": {
			"bufferView": "vec3BufferView",
			"byteOffset": 102096,
			"byteStride": 12,
			"componentType": 5126,
			"count": 9974,
			"max": [ 1.776634, 3.809084, -1.094076 ],
			"min": [ -1.235835, 2.334862, -3.231281 ],
			"type": "VEC3"
		 },
		"accessor_normal_m1-PolyPaper21_-614356": {
			"bufferView": "vec3BufferView",
			"byteOffset": 221784,
			"byteStride": 12,
			"componentType": 5126,
			"count": 9974,
			"max": [ 0.9759379, 0.9997531, 0.995919 ],
			"min": [ -0.9867796, -0.9997531, -0.995919 ],
			"type": "VEC3"
		 },
		"accessor_color_m1-PolyPaper21_-614356": {
			"bufferView": "vec4BufferView",
			"byteOffset": 68064,
			"byteStride": 16,
			"componentType": 5126,
			"count": 9974,
			"max": [ 1, 1, 1, 1 ],
			"min": [ 0.1019608, 0.1019608, 0.1019608, 1 ],
			"type": "VEC4"
		 },
		"accessor_indices_0_m1-PolyPaper21_-614356": {
			"bufferView": "ushortBufferView",
			"byteOffset": 12852,
			"byteStride": 0,
			"componentType": 5123,
			"count": 15642,
			"max": [ 9973 ],
			"min": [ 0 ],
			"type": "SCALAR"
		 },
		"accessor_position_m2-PolyGem25_-616120": {
			"bufferView": "vec3BufferView",
			"byteOffset": 341472,
			"byteStride": 12,
			"componentType": 5126,
			"count": 23,
			"max": [ 0.4408628, 3.329452, -1.1881 ],
			"min": [ 0.07185037, 3.241332, -1.621465 ],
			"type": "VEC3"
		 },
		"accessor_normal_m2-PolyGem25_-616120": {
			"bufferView": "vec3BufferView",
			"byteOffset": 341748,
			"byteStride": 12,
			"componentType": 5126,
			"count": 23,
			"max": [ 0.8997011, 0.9919013, 0.442577 ],
			"min": [ -0.9018532, -0.9622366, -0.3501547 ],
			"type": "VEC3"
		 },
		"accessor_color_m2-PolyGem25_-616120": {
			"bufferView": "vec4BufferView",
			"byteOffset": 227648,
			"byteStride": 16,
			"componentType": 5126,
			"count": 23,
			"max": [ 1, 1, 1, 1 ],
			"min": [ 1, 1, 1, 1 ],
			"type": "VEC4"
		 },
		"accessor_indices_0_m2-PolyGem25_-616120": {
			"bufferView": "ushortBufferView",
			"byteOffset": 44136,
			"byteStride": 0,
			"componentType": 5123,
			"count": 33,
			"max": [ 22 ],
			"min": [ 0 ],
			"type": "SCALAR"
		 },
		"accessor_position_m3-PolyGlass24_-614358": {
			"bufferView": "vec3BufferView",
			"byteOffset": 342024,
			"byteStride": 12,
			"componentType": 5126,
			"count": 151,
			"max": [ 1.17771, 3.653639, -1.416618 ],
			"min": [ -1.120323, 2.33684, -2.69869 ],
			"type": "VEC3"
		 },
		"accessor_normal_m3-PolyGlass24_-614358": {
			"bufferView": "vec3BufferView",
			"byteOffset": 343836,
			"byteStride": 12,
			"componentType": 5126,
			"count": 151,
			"max": [ 0.6524609, 0.9990025, 0.9508262 ],
			"min": [ -0.7430505, -0.9989448, -0.9508371 ],
			"type": "VEC3"
		 },
		"accessor_color_m3-PolyGlass24_-614358": {
			"bufferView": "vec4BufferView",
			"byteOffset": 228016,
			"byteStride": 16,
			"componentType": 5126,
			"count": 151,
			"max": [ 0.8392157, 0.8392157, 0.8392157, 0.2509804 ],
			"min": [ 0.8392157, 0.8392157, 0.8392157, 0.2509804 ],
			"type": "VEC4"
		 },
		"accessor_indices_0_m3-PolyGlass24_-614358": {
			"bufferView": "ushortBufferView",
			"byteOffset": 44202,
			"byteStride": 0,
			"componentType": 5123,
			"count": 201,
			"max": [ 150 ],
			"min": [ 0 ],
			"type": "SCALAR"
		 }
	},
	"bufferViews": {
		"ushortBufferView": {
			"buffer": "model",
			"byteLength": 44604,
			"byteOffset": 0,
			"target": 34963
		},
		"vec3BufferView": {
			"buffer": "model",
			"byteLength": 345648,
			"byteOffset": 44604,
			"target": 34962
		},
		"vec4BufferView": {
			"buffer": "model",
			"byteLength": 230432,
			"byteOffset": 390252,
			"target": 34962
		}
	},
	"meshes": {
		"mesh_m0-PolyPaper21_-616118": {
			"name": "mesh_m0-PolyPaper21_-616118",
			"primitives": [
				{
					"attributes": {
						"POSITION": "accessor_position_m0-PolyPaper21_-616118",
						"NORMAL": "accessor_normal_m0-PolyPaper21_-616118",
						"COLOR": "accessor_color_m0-PolyPaper21_-616118"
					},
					"indices": "accessor_indices_0_m0-PolyPaper21_-616118",
					"material": "material_mat21",
					"mode": 4
				}
			]
		},
		"mesh_m1-PolyPaper21_-614356": {
			"name": "mesh_m1-PolyPaper21_-614356",
			"primitives": [
				{
					"attributes": {
						"POSITION": "accessor_position_m1-PolyPaper21_-614356",
						"NORMAL": "accessor_normal_m1-PolyPaper21_-614356",
						"COLOR": "accessor_color_m1-PolyPaper21_-614356"
					},
					"indices": "accessor_indices_0_m1-PolyPaper21_-614356",
					"material": "material_mat21",
					"mode": 4
				}
			]
		},
		"mesh_m2-PolyGem25_-616120": {
			"name": "mesh_m2-PolyGem25_-616120",
			"primitives": [
				{
					"attributes": {
						"POSITION": "accessor_position_m2-PolyGem25_-616120",
						"NORMAL": "accessor_normal_m2-PolyGem25_-616120",
						"COLOR": "accessor_color_m2-PolyGem25_-616120"
					},
					"indices": "accessor_indices_0_m2-PolyGem25_-616120",
					"material": "material_mat25",
					"mode": 4
				}
			]
		},
		"mesh_m3-PolyGlass24_-614358": {
			"name": "mesh_m3-PolyGlass24_-614358",
			"primitives": [
				{
					"attributes": {
						"POSITION": "accessor_position_m3-PolyGlass24_-614358",
						"NORMAL": "accessor_normal_m3-PolyGlass24_-614358",
						"COLOR": "accessor_color_m3-PolyGlass24_-614358"
					},
					"indices": "accessor_indices_0_m3-PolyGlass24_-614358",
					"material": "material_mat24",
					"mode": 4
				}
			]
		}
	},
	"shaders": {
		"vertex_mat21": {
			"type": 35633,
			"uri": "https://vr.google.com/shaders/w/vs.glsl"
		},
		"fragment_mat21": {
			"type": 35632,
			"uri": "https://vr.google.com/shaders/w/fs.glsl"
		},
		"vertex_mat25": {
			"type": 35633,
			"uri": "https://vr.google.com/shaders/w/gemVS.glsl"
		},
		"fragment_mat25": {
			"type": 35632,
			"uri": "https://vr.google.com/shaders/w/gemFS.glsl"
		},
		"vertex_mat24": {
			"type": 35633,
			"uri": "https://vr.google.com/shaders/w/glassVS.glsl"
		},
		"fragment_mat24": {
			"type": 35632,
			"uri": "https://vr.google.com/shaders/w/glassFS.glsl"
		}
	},
	"programs": {
		"program_mat21": {
			"attributes": [
				"a_position",
				"a_normal",
				"a_color"				
			],
			"vertexShader": "vertex_mat21",
			"fragmentShader": "fragment_mat21"
		},
		"program_mat25": {
			"attributes": [
				"a_position",
				"a_normal",
				"a_color"				
			],
			"vertexShader": "vertex_mat25",
			"fragmentShader": "fragment_mat25"
		},
		"program_mat24": {
			"attributes": [
				"a_position",
				"a_normal",
				"a_color"				
			],
			"vertexShader": "vertex_mat24",
			"fragmentShader": "fragment_mat24"
		}
	},
	"techniques": {
		"technique_mat21": {
			"program": "program_mat21",
			"extras": {"gvrss" : "https://vr.google.com/shaders/w/gvrss/paper.json"},
			"parameters": {
				"position": {
					"type": 35665,
					"semantic": "POSITION"
				},
				"normal": {
					"type": 35665,
					"semantic": "NORMAL"
				},
				"color": {
					"type": 35666,
					"semantic": "COLOR"
				},
				"modelViewMatrix": {
					"type": 35676,
					"semantic": "MODELVIEW"
				},
				"projectionMatrix": {
					"type": 35676,
					"semantic": "PROJECTION"
				},
				"normalMatrix": {
					"type": 35675,
					"semantic": "MODELVIEWINVERSETRANSPOSE"
				},
				"color": {
					"type": 35666
				},
				"roughness": {
					"type": 5126
				},
				"metallic": {
					"type": 5126
				},
				"light0Pos": {
					"type": 35666
				},
				"light0Color": {
					"type": 35666
				},
				"light1Pos": {
					"type": 35666
				},
				"light1Color": {
					"type": 35666
				}				
			},
			"attributes": {
				"a_position": "position",
				"a_normal": "normal",
				"a_color": "color"				
			},
			"uniforms": {
				"u_modelViewMatrix": "modelViewMatrix",
				"u_projectionMatrix": "projectionMatrix",
				"u_normalMatrix": "normalMatrix",
				"u_color": "color",
				"u_roughness": "roughness",
				"u_metallic": "metallic",
				"u_light0Pos": "light0Pos",
				"u_light0Color": "light0Color",
				"u_light1Pos": "light1Pos",
				"u_light1Color": "light1Color"				
			},
			"states": {
				"enable": [
					2929,
					2884
				],
				"functions": {
					"cullFace": [1029]
				}
			}
		},
		"technique_mat25": {
			"program": "program_mat25",
			"extras": {"gvrss" : "https://vr.google.com/shaders/w/gvrss/gem.json"},
			"parameters": {
				"position": {
					"type": 35665,
					"semantic": "POSITION"
				},
				"normal": {
					"type": 35665,
					"semantic": "NORMAL"
				},
				"color": {
					"type": 35666,
					"semantic": "COLOR"
				},
				"modelViewMatrix": {
					"type": 35676,
					"semantic": "MODELVIEW"
				},
				"projectionMatrix": {
					"type": 35676,
					"semantic": "PROJECTION"
				},
				"normalMatrix": {
					"type": 35675,
					"semantic": "MODELVIEWINVERSETRANSPOSE"
				},
				"color": {
					"type": 35666
				},
				"roughness": {
					"type": 5126
				},
				"metallic": {
					"type": 5126
				},
				"gem": {
					"type": 35678
				},
				"light0Pos": {
					"type": 35666
				},
				"light0Color": {
					"type": 35666
				},
				"light1Pos": {
					"type": 35666
				},
				"light1Color": {
					"type": 35666
				}				
			},
			"attributes": {
				"a_position": "position",
				"a_normal": "normal",
				"a_color": "color"				
			},
			"uniforms": {
				"u_modelViewMatrix": "modelViewMatrix",
				"u_projectionMatrix": "projectionMatrix",
				"u_normalMatrix": "normalMatrix",
				"u_color": "color",
				"u_roughness": "roughness",
				"u_metallic": "metallic",
				"u_gem": "gem",
				"u_light0Pos": "light0Pos",
				"u_light0Color": "light0Color",
				"u_light1Pos": "light1Pos",
				"u_light1Color": "light1Color"				
			},
			"states": {
				"enable": [
					2929,
					2884
				],
				"functions": {
					"cullFace": [1029]
				}
			}
		},
		"technique_mat24": {
			"program": "program_mat24",
			"extras": {"gvrss" : "https://vr.google.com/shaders/w/gvrss/glass.json"},
			"parameters": {
				"position": {
					"type": 35665,
					"semantic": "POSITION"
				},
				"normal": {
					"type": 35665,
					"semantic": "NORMAL"
				},
				"color": {
					"type": 35666,
					"semantic": "COLOR"
				},
				"modelViewMatrix": {
					"type": 35676,
					"semantic": "MODELVIEW"
				},
				"projectionMatrix": {
					"type": 35676,
					"semantic": "PROJECTION"
				},
				"normalMatrix": {
					"type": 35675,
					"semantic": "MODELVIEWINVERSETRANSPOSE"
				},
				"color": {
					"type": 35666
				},
				"roughness": {
					"type": 5126
				},
				"metallic": {
					"type": 5126
				},
				"light0Pos": {
					"type": 35666
				},
				"light0Color": {
					"type": 35666
				},
				"light1Pos": {
					"type": 35666
				},
				"light1Color": {
					"type": 35666
				}				
			},
			"attributes": {
				"a_position": "position",
				"a_normal": "normal",
				"a_color": "color"				
			},
			"uniforms": {
				"u_modelViewMatrix": "modelViewMatrix",
				"u_projectionMatrix": "projectionMatrix",
				"u_normalMatrix": "normalMatrix",
				"u_color": "color",
				"u_roughness": "roughness",
				"u_metallic": "metallic",
				"u_light0Pos": "light0Pos",
				"u_light0Color": "light0Color",
				"u_light1Pos": "light1Pos",
				"u_light1Color": "light1Color"				
			},
			"states": {
				"enable": [
					2929,
					3042
				],
				"functions": {
					"blendFuncSeparate": [775, 774, 773, 772],
					"depthMask": [true]
				}
			}
		}
	},
	"samplers": {
		"sampler_LINEAR_LINEAR_REPEAT": {
			"magFilter": 9729,
			"minFilter": 9987,
			"wrapS": 10497,
			"wrapT": 10497
		}
	},
	"textures": {
		"texture_mat25_gem": {
			"format": 6408,
			"internalFormat": 6408,
			"sampler": "sampler_LINEAR_LINEAR_REPEAT",
			"source": "image_mat25_gem",
			"target": 3553,
			"type": 5121
		}
	},
	"images": {
		"image_mat25_gem": {
			"uri": "https://vr.google.com/shaders/w/GemRefractions.png"
		}
	},
	"materials": {
		"material_mat21": {
			"technique": "technique_mat21",
			"values": {
				"color": [1, 1, 1, 1],
				"roughness": 0.72,
				"metallic": 0,
				"light0Pos": [-0.02, 4.11, -0.54, 0],
				"light0Color": [0.8, 0.8, 0.8, 0],
				"light1Pos": [0.02, -4.11, 0.54, 0],
				"light1Color": [0.64, 0.5647059, 0.5647059, 0]				
			},
			"name": "material_mat21"
		},
		"material_mat25": {
			"technique": "technique_mat25",
			"values": {
				"color": [1, 1, 1, 1],
				"roughness": 0.001,
				"metallic": 0,
				"gem": "texture_mat25_gem",
				"light0Pos": [-0.02, 4.11, -0.54, 0],
				"light0Color": [0.8, 0.8, 0.8, 0],
				"light1Pos": [0.02, -4.11, 0.54, 0],
				"light1Color": [0.64, 0.5647059, 0.5647059, 0]				
			},
			"name": "material_mat25"
		},
		"material_mat24": {
			"technique": "technique_mat24",
			"values": {
				"color": [0.8392157, 0.8392157, 0.8392157, 0.2509804],
				"roughness": 0,
				"metallic": 0,
				"light0Pos": [-0.02, 4.11, -0.54, 0],
				"light0Color": [0.8, 0.8, 0.8, 0],
				"light1Pos": [0.02, -4.11, 0.54, 0],
				"light1Color": [0.64, 0.5647059, 0.5647059, 0]				
			},
			"name": "material_mat24"
		}
	},
	"nodes": {
		"node_MeshObject1583636800-PolyPaper21": {
			"name": "node_MeshObject1583636800-PolyPaper21",
			"meshes": [
				"mesh_m0-PolyPaper21_-616118"
			],
			"matrix": [1, 0, 0, 0, 0, 1, 0, 0, 0, 0, 1, 0, 0, 0, 0, 1]
		},
		"node_MeshObject-2044446720-PolyPaper21": {
			"name": "node_MeshObject-2044446720-PolyPaper21",
			"meshes": [
				"mesh_m1-PolyPaper21_-614356"
			],
			"matrix": [1, 0, 0, 0, 0, 1, 0, 0, 0, 0, 1, 0, 0, 0, 0, 1]
		},
		"node_MeshObject2102356864-PolyGem25": {
			"name": "node_MeshObject2102356864-PolyGem25",
			"meshes": [
				"mesh_m2-PolyGem25_-616120"
			],
			"matrix": [1, 0, 0, 0, 0, 1, 0, 0, 0, 0, 1, 0, 0, 0, 0, 1]
		},
		"node_MeshObject-1525726656-PolyGlass24": {
			"name": "node_MeshObject-1525726656-PolyGlass24",
			"meshes": [
				"mesh_m3-PolyGlass24_-614358"
			],
			"matrix": [1, 0, 0, 0, 0, 1, 0, 0, 0, 0, 1, 0, 0, 0, 0, 1]
		}
	},
	"scene": "defaultScene",
	"scenes": {
		"defaultScene": {
			"nodes": [
				"node_MeshObject1583636800-PolyPaper21",
				"node_MeshObject-2044446720-PolyPaper21",
				"node_MeshObject2102356864-PolyGem25",
				"node_MeshObject-1525726656-PolyGlass24"
			],
			"extras": {

			}
		}
	}
}