{
	"asset": {
		"generator": "Tilt Brush 22.3.bfe37158d",
		"version": "1.1",
		"copyright": "Unknown."
	},
	"buffers": {
		"buffer_sketch": {
			"byteLength": 206400,
			"type": "arraybuffer",
			"uri": "sketch.bin"
		}
	},
	"accessors": {
		"accessor_position_Smoke_70d79cca-b159-4f35-990c-f02193947fe8_0_i0": {
			"bufferView": "vec3BufferView",
			"byteOffset": 0,
			"byteStride": 12,
			"componentType": 5126,
			"count": 2752,
			"max": [ 5.1057992, 2.27986193, 3.84823871 ],
			"min": [ -2.97336507, -1.6578902, -4.03450012 ],
			"type": "VEC3"
		},
		"accessor_normal_Smoke_70d79cca-b159-4f35-990c-f02193947fe8_0_i0": {
			"bufferView": "vec3BufferView",
			"byteOffset": 33024,
			"byteStride": 12,
			"componentType": 5126,
			"count": 2752,
			"max": [ 4.63525629, 1.79814529, 3.40545583 ],
			"min": [ -2.53152537, -1.11625671, -3.51055598 ],
			"type": "VEC3"
		},
		"accessor_color_Smoke_70d79cca-b159-4f35-990c-f02193947fe8_0_i0": {
			"bufferView": "vec4BufferView",
			"byteOffset": 0,
			"byteStride": 16,
			"componentType": 5126,
			"count": 2752,
			"type": "VEC4"
		},
		"accessor_uv0_Smoke_70d79cca-b159-4f35-990c-f02193947fe8_0_i0": {
			"bufferView": "vec4BufferView",
			"byteOffset": 44032,
			"byteStride": 16,
			"componentType": 5126,
			"count": 2752,
			"max": [ 1, 1, 3.11796427, 272.766296 ],
			"min": [ 0, 0, -3.138695, 211.168304 ],
			"type": "VEC4"
		},
		"accessor_uv1_Smoke_70d79cca-b159-4f35-990c-f02193947fe8_0_i0": {
			"bufferView": "vec4BufferView",
			"byteOffset": 88064,
			"byteStride": 16,
			"componentType": 5126,
			"count": 2752,
			"max": [ 4.64495802, 1.82412815, 3.32370806, 2751 ],
			"min": [ -2.46164918, -1.03991771, -3.49113965, 0 ],
			"type": "VEC4"
		},
		"accessor_indices_0_Smoke_70d79cca-b159-4f35-990c-f02193947fe8_0_i0": {
			"bufferView": "ushortBufferView",
			"byteOffset": 0,
			"byteStride": 0,
			"componentType": 5123,
			"count": 4128,
			"max": [ 2751 ],
			"min": [ 0 ],
			"type": "SCALAR"
		}
	},
	"bufferViews": {
		"ushortBufferView": {
			"buffer": "buffer_sketch",
			"byteLength": 8256,
			"byteOffset": 0,
			"target": 34963
		},
		"vec3BufferView": {
			"buffer": "buffer_sketch",
			"byteLength": 66048,
			"byteOffset": 8256,
			"target": 34962
		},
		"vec4BufferView": {
			"buffer": "buffer_sketch",
			"byteLength": 132096,
			"byteOffset": 74304,
			"target": 34962
		}
	},
	"meshes": {
		"mesh_Smoke_70d79cca-b159-4f35-990c-f02193947fe8_0_i0": {
			"name": "mesh_Smoke_70d79cca-b159-4f35-990c-f02193947fe8_0_i0",
			"primitives": [
				{
					"attributes": {
						"POSITION": "accessor_position_Smoke_70d79cca-b159-4f35-990c-f02193947fe8_0_i0",
						"NORMAL": "accessor_normal_Smoke_70d79cca-b159-4f35-990c-f02193947fe8_0_i0",
						"COLOR": "accessor_color_Smoke_70d79cca-b159-4f35-990c-f02193947fe8_0_i0",
						"TEXCOORD_0": "accessor_uv0_Smoke_70d79cca-b159-4f35-990c-f02193947fe8_0_i0",
						"TEXCOORD_1": "accessor_uv1_Smoke_70d79cca-b159-4f35-990c-f02193947fe8_0_i0"
					},
					"indices": "accessor_indices_0_Smoke_70d79cca-b159-4f35-990c-f02193947fe8_0_i0",
					"material": "material_70d79cca-b159-4f35-990c-f02193947fe8",
					"mode": 4
				}
			]
		}
	},
	"shaders": {
		"vertex_70d79cca-b159-4f35-990c-f02193947fe8": {
			"type": 35633,
			"uri": "https://www.tiltbrush.com/shaders/brushes/Smoke-70d79cca-b159-4f35-990c-f02193947fe8/Smoke-70d79cca-b159-4f35-990c-f02193947fe8-v10.0-vertex.glsl"
		},
		"fragment_70d79cca-b159-4f35-990c-f02193947fe8": {
			"type": 35632,
			"uri": "https://www.tiltbrush.com/shaders/brushes/Smoke-70d79cca-b159-4f35-990c-f02193947fe8/Smoke-70d79cca-b159-4f35-990c-f02193947fe8-v10.0-fragment.glsl"
		}
	},
	"programs": {
		"program_70d79cca-b159-4f35-990c-f02193947fe8": {
			"attributes": [
				"a_position",
				"a_normal",
				"a_color",
				"a_vertexId",
				"a_texcoord0",
				"a_texcoord1"
			],
			"vertexShader": "vertex_70d79cca-b159-4f35-990c-f02193947fe8",
			"fragmentShader": "fragment_70d79cca-b159-4f35-990c-f02193947fe8"
		}
	},
	"techniques": {
		"technique_70d79cca-b159-4f35-990c-f02193947fe8": {
			"program": "program_70d79cca-b159-4f35-990c-f02193947fe8",
			"parameters": {
				"position": {
					"type": 35665,
					"semantic": "POSITION"
				},
				"normal": {
					"type": 35665,
					"semantic": "NORMAL"
				},
				"color": {
					"type": 35666,
					"semantic": "COLOR"
				},
				"vertexId": {
					"type": 5126
				},
				"texcoord0": {
					"type": 35666,
					"semantic": "TEXCOORD_0"
				},
				"texcoord1": {
					"type": 35666,
					"semantic": "TEXCOORD_1"
				},
				"modelViewMatrix": {
					"type": 35676,
					"semantic": "MODELVIEW"
				},
				"projectionMatrix": {
					"type": 35676,
					"semantic": "PROJECTION"
				},
				"normalMatrix": {
					"type": 35675,
					"semantic": "MODELVIEWINVERSETRANSPOSE"
				},
				"SceneLight_0_matrix": {
					"type": 35676,
					"semantic": "MODELVIEW",
					"node": "node_SceneLight_0_i1"
				},
				"SceneLight_0_color": {
					"type": 35666,
					"node": "node_SceneLight_0_i1"
				},
				"SceneLight_1_matrix": {
					"type": 35676,
					"semantic": "MODELVIEW",
					"node": "node_SceneLight_1_i2"
				},
				"SceneLight_1_color": {
					"type": 35666,
					"node": "node_SceneLight_1_i2"
				},
				"ambient_light_color": {
					"type": 35666
				},
				"ScrollRate": {
					"type": 5126
				},
				"TintColor": {
					"type": 35666
				},
				"MainTex_TexelSize": {
					"type": 35666
				},
				"MainTex": {
					"type": 35678
				}
			},
			"attributes": {
				"a_position": "position",
				"a_normal": "normal",
				"a_color": "color",
				"a_vertexId": "vertexId",
				"a_texcoord0": "texcoord0",
				"a_texcoord1": "texcoord1"
			},
			"uniforms": {
				"u_modelViewMatrix": "modelViewMatrix",
				"u_projectionMatrix": "projectionMatrix",
				"u_normalMatrix": "normalMatrix",
				"u_SceneLight_0_matrix": "SceneLight_0_matrix",
				"u_SceneLight_0_color": "SceneLight_0_color",
				"u_SceneLight_1_matrix": "SceneLight_1_matrix",
				"u_SceneLight_1_color": "SceneLight_1_color",
				"u_ambient_light_color": "ambient_light_color",
				"u_ScrollRate": "ScrollRate",
				"u_TintColor": "TintColor",
				"u_MainTex_TexelSize": "MainTex_TexelSize",
				"u_MainTex": "MainTex"
			},
			"states": {
				"enable": [
					2929,
					3042
				],
				"functions": {
					"blendFuncSeparate": [1, 1, 1, 1],
					"depthMask": [false]
				}
			}
		}
	},
	"samplers": {
		"sampler_LINEAR_LINEAR_MIPMAP_LINEAR_REPEAT": {
			"magFilter": 9729,
			"minFilter": 9987,
			"wrapS": 10497,
			"wrapT": 10497
		}
	},
	"textures": {
		"texture_70d79cca-b159-4f35-990c-f02193947fe8_MainTex": {
			"format": 6408,
			"internalFormat": 6408,
			"sampler": "sampler_LINEAR_LINEAR_MIPMAP_LINEAR_REPEAT",
			"source": "image_70d79cca-b159-4f35-990c-f02193947fe8_MainTex",
			"target": 3553,
			"type": 5121
		}
	},
	"images": {
		"image_70d79cca-b159-4f35-990c-f02193947fe8_MainTex": {
			"uri": "https://www.tiltbrush.com/shaders/brushes/Smoke-70d79cca-b159-4f35-990c-f02193947fe8/Smoke-70d79cca-b159-4f35-990c-f02193947fe8-v10.0-MainTex.png"
		}
	},
	"materials": {
		"material_70d79cca-b159-4f35-990c-f02193947fe8": {
			"technique": "technique_70d79cca-b159-4f35-990c-f02193947fe8",
			"values": {
				"SceneLight_0_color": [0.7780392, 0.8156863, 0.9913726, 1],
				"SceneLight_1_color": [0.4282353, 0.4211765, 0.3458824, 1],
				"ambient_light_color": [0.3921569, 0.3921569, 0.3921569, 1],
				"ScrollRate": 0.75,
				"TintColor": [1, 1, 1, 1],
				"MainTex_TexelSize": [0.001953125, 0.001953125, 512, 512],
				"MainTex": "texture_70d79cca-b159-4f35-990c-f02193947fe8_MainTex"
			},
			"name": "material_70d79cca-b159-4f35-990c-f02193947fe8"
		}
	},
	"nodes": {
		"node_Smoke_70d79cca-b159-4f35-990c-f02193947fe8_0_i0": {
			"name": "node_Smoke_70d79cca-b159-4f35-990c-f02193947fe8_0_i0",
			"meshes": [
				"mesh_Smoke_70d79cca-b159-4f35-990c-f02193947fe8_0_i0"
			],
			"matrix": [1, 0, 0, 0, 0, 1, 0, 0, 0, 0, 1, 0, 0, 0, 0, 1]
		},
		"node_SceneLight_0_i1": {
			"name": "node_SceneLight_0_i1",
			"light": "SceneLight_0",
			"matrix": [0.898794, 0.2191856, -0.3796406, 0, -0.4383712, 0.449397, -0.7783785, 0, -1.490116E-08, 0.8660254, 0.4999999, 0, 0, 0.07816665, 0.0220875, 1]
		},
		"node_SceneLight_1_i2": {
			"name": "node_SceneLight_1_i2",
			"light": "SceneLight_1",
			"matrix": [0.7660446, -0.4924039, -0.4131757, 0, -0.6427875, -0.5868244, -0.4924039, 0, 2.980232E-08, 0.6427875, -0.7660447, 0, 3.874302E-09, 0.0636562, -0.06020541, 1]
		}
	},
	"scene": "defaultScene",
	"scenes": {
		"defaultScene": {
			"nodes": [
				"node_Smoke_70d79cca-b159-4f35-990c-f02193947fe8_0_i0",
				"node_SceneLight_0_i1",
				"node_SceneLight_1_i2"
			],
			"extras": {
				"TB_EnvironmentGuid": "9b89b0a4-c41e-4b78-82a1-22f10a238357",
				"TB_Environment": "White",
				"TB_UseGradient": "true",
				"TB_SkyColorA": "0.7843137, 0.7843137, 0.7843137",
				"TB_SkyColorB": "0.7843137, 0.7843137, 0.7843137",
				"TB_SkyGradientDirection": "0, 1, 0",
				"TB_FogColor": "1, 1, 1",
				"TB_FogDensity": "0",
				"TB_SkyColorHorizon": "0.7843137, 0.7843137, 0.7843137",
				"TB_SkyColorZenith": "0.7843137, 0.7843137, 0.7843137"
			}
		}
	}
}