{
	"asset": {
		"generator": "Blocks 2.0.1_OVR_RC5",
		"version": "1.1",
		"copyright": "Unknown"
	},
	"buffers": {
		"model": {
			"byteLength": 280090,
			"type": "arraybuffer",
			"uri": "model.bin"
		}
	},
	"accessors": {
		"accessor_position_m0-PolyGlass24_-630812": {
			"bufferView": "vec3BufferView",
			"byteOffset": 0,
			"byteStride": 12,
			"componentType": 5126,
			"count": 435,
			"max": [ 2.807528, 2.81, -1.2175 ],
			"min": [ 2.457525, 0.8467204, -2.730001 ],
			"type": "VEC3"
		 },
		"accessor_normal_m0-PolyGlass24_-630812": {
			"bufferView": "vec3BufferView",
			"byteOffset": 5220,
			"byteStride": 12,
			"componentType": 5126,
			"count": 435,
			"max": [ 1, 0.7071089, 0.9899495 ],
			"min": [ -1, -1, -0.9876355 ],
			"type": "VEC3"
		 },
		"accessor_color_m0-PolyGlass24_-630812": {
			"bufferView": "vec4BufferView",
			"byteOffset": 0,
			"byteStride": 16,
			"componentType": 5126,
			"count": 435,
			"max": [ 0.8392157, 0.8392157, 0.8392157, 0.2509804 ],
			"min": [ 0.8392157, 0.8392157, 0.8392157, 0.2509804 ],
			"type": "VEC4"
		 },
		"accessor_indices_0_m0-PolyGlass24_-630812": {
			"bufferView": "ushortBufferView",
			"byteOffset": 0,
			"byteStride": 0,
			"componentType": 5123,
			"count": 681,
			"max": [ 434 ],
			"min": [ 0 ],
			"type": "SCALAR"
		 },
		"accessor_position_m1-PolyPaper18_-630814": {
			"bufferView": "vec3BufferView",
			"byteOffset": 10440,
			"byteStride": 12,
			"componentType": 5126,
			"count": 6028,
			"max": [ 2.857476, 3.659978, -1.264042 ],
			"min": [ 2.217273, 0.8841935, -2.686951 ],
			"type": "VEC3"
		 },
		"accessor_normal_m1-PolyPaper18_-630814": {
			"bufferView": "vec3BufferView",
			"byteOffset": 82776,
			"byteStride": 12,
			"componentType": 5126,
			"count": 6028,
			"max": [ 1, 1, 1 ],
			"min": [ -1, -1, -1 ],
			"type": "VEC3"
		 },
		"accessor_color_m1-PolyPaper18_-630814": {
			"bufferView": "vec4BufferView",
			"byteOffset": 6960,
			"byteStride": 16,
			"componentType": 5126,
			"count": 6028,
			"max": [ 1, 1, 1, 1 ],
			"min": [ 0.01176471, 0.2627451, 0, 1 ],
			"type": "VEC4"
		 },
		"accessor_indices_0_m1-PolyPaper18_-630814": {
			"bufferView": "ushortBufferView",
			"byteOffset": 1362,
			"byteStride": 0,
			"componentType": 5123,
			"count": 10104,
			"max": [ 6027 ],
			"min": [ 0 ],
			"type": "SCALAR"
		 }
	},
	"bufferViews": {
		"ushortBufferView": {
			"buffer": "model",
			"byteLength": 21570,
			"byteOffset": 0,
			"target": 34963
		},
		"vec3BufferView": {
			"buffer": "model",
			"byteLength": 155112,
			"byteOffset": 21570,
			"target": 34962
		},
		"vec4BufferView": {
			"buffer": "model",
			"byteLength": 103408,
			"byteOffset": 176682,
			"target": 34962
		}
	},
	"meshes": {
		"mesh_m0-PolyGlass24_-630812": {
			"name": "mesh_m0-PolyGlass24_-630812",
			"primitives": [
				{
					"attributes": {
						"POSITION": "accessor_position_m0-PolyGlass24_-630812",
						"NORMAL": "accessor_normal_m0-PolyGlass24_-630812",
						"COLOR": "accessor_color_m0-PolyGlass24_-630812"
					},
					"indices": "accessor_indices_0_m0-PolyGlass24_-630812",
					"material": "material_mat24",
					"mode": 4
				}
			]
		},
		"mesh_m1-PolyPaper18_-630814": {
			"name": "mesh_m1-PolyPaper18_-630814",
			"primitives": [
				{
					"attributes": {
						"POSITION": "accessor_position_m1-PolyPaper18_-630814",
						"NORMAL": "accessor_normal_m1-PolyPaper18_-630814",
						"COLOR": "accessor_color_m1-PolyPaper18_-630814"
					},
					"indices": "accessor_indices_0_m1-PolyPaper18_-630814",
					"material": "material_mat18",
					"mode": 4
				}
			]
		}
	},
	"shaders": {
		"vertex_mat24": {
			"type": 35633,
			"uri": "https://vr.google.com/shaders/w/glassVS.glsl"
		},
		"fragment_mat24": {
			"type": 35632,
			"uri": "https://vr.google.com/shaders/w/glassFS.glsl"
		},
		"vertex_mat18": {
			"type": 35633,
			"uri": "https://vr.google.com/shaders/w/vs.glsl"
		},
		"fragment_mat18": {
			"type": 35632,
			"uri": "https://vr.google.com/shaders/w/fs.glsl"
		}
	},
	"programs": {
		"program_mat24": {
			"attributes": [
				"a_position",
				"a_normal",
				"a_color"				
			],
			"vertexShader": "vertex_mat24",
			"fragmentShader": "fragment_mat24"
		},
		"program_mat18": {
			"attributes": [
				"a_position",
				"a_normal",
				"a_color"				
			],
			"vertexShader": "vertex_mat18",
			"fragmentShader": "fragment_mat18"
		}
	},
	"techniques": {
		"technique_mat24": {
			"program": "program_mat24",
			"extras": {"gvrss" : "https://vr.google.com/shaders/w/gvrss/glass.json"},
			"parameters": {
				"position": {
					"type": 35665,
					"semantic": "POSITION"
				},
				"normal": {
					"type": 35665,
					"semantic": "NORMAL"
				},
				"color": {
					"type": 35666,
					"semantic": "COLOR"
				},
				"modelViewMatrix": {
					"type": 35676,
					"semantic": "MODELVIEW"
				},
				"projectionMatrix": {
					"type": 35676,
					"semantic": "PROJECTION"
				},
				"normalMatrix": {
					"type": 35675,
					"semantic": "MODELVIEWINVERSETRANSPOSE"
				},
				"color": {
					"type": 35666
				},
				"roughness": {
					"type": 5126
				},
				"metallic": {
					"type": 5126
				},
				"light0Pos": {
					"type": 35666
				},
				"light0Color": {
					"type": 35666
				},
				"light1Pos": {
					"type": 35666
				},
				"light1Color": {
					"type": 35666
				}				
			},
			"attributes": {
				"a_position": "position",
				"a_normal": "normal",
				"a_color": "color"				
			},
			"uniforms": {
				"u_modelViewMatrix": "modelViewMatrix",
				"u_projectionMatrix": "projectionMatrix",
				"u_normalMatrix": "normalMatrix",
				"u_color": "color",
				"u_roughness": "roughness",
				"u_metallic": "metallic",
				"u_light0Pos": "light0Pos",
				"u_light0Color": "light0Color",
				"u_light1Pos": "light1Pos",
				"u_light1Color": "light1Color"				
			},
			"states": {
				"enable": [
					2929,
					3042
				],
				"functions": {
					"blendFuncSeparate": [775, 774, 773, 772],
					"depthMask": [true]
				}
			}
		},
		"technique_mat18": {
			"program": "program_mat18",
			"extras": {"gvrss" : "https://vr.google.com/shaders/w/gvrss/paper.json"},
			"parameters": {
				"position": {
					"type": 35665,
					"semantic": "POSITION"
				},
				"normal": {
					"type": 35665,
					"semantic": "NORMAL"
				},
				"color": {
					"type": 35666,
					"semantic": "COLOR"
				},
				"modelViewMatrix": {
					"type": 35676,
					"semantic": "MODELVIEW"
				},
				"projectionMatrix": {
					"type": 35676,
					"semantic": "PROJECTION"
				},
				"normalMatrix": {
					"type": 35675,
					"semantic": "MODELVIEWINVERSETRANSPOSE"
				},
				"color": {
					"type": 35666
				},
				"roughness": {
					"type": 5126
				},
				"metallic": {
					"type": 5126
				},
				"light0Pos": {
					"type": 35666
				},
				"light0Color": {
					"type": 35666
				},
				"light1Pos": {
					"type": 35666
				},
				"light1Color": {
					"type": 35666
				}				
			},
			"attributes": {
				"a_position": "position",
				"a_normal": "normal",
				"a_color": "color"				
			},
			"uniforms": {
				"u_modelViewMatrix": "modelViewMatrix",
				"u_projectionMatrix": "projectionMatrix",
				"u_normalMatrix": "normalMatrix",
				"u_color": "color",
				"u_roughness": "roughness",
				"u_metallic": "metallic",
				"u_light0Pos": "light0Pos",
				"u_light0Color": "light0Color",
				"u_light1Pos": "light1Pos",
				"u_light1Color": "light1Color"				
			},
			"states": {
				"enable": [
					2929,
					2884
				],
				"functions": {
					"cullFace": [1029]
				}
			}
		}
	},
	"materials": {
		"material_mat24": {
			"technique": "technique_mat24",
			"values": {
				"color": [0.8392157, 0.8392157, 0.8392157, 0.2509804],
				"roughness": 0,
				"metallic": 0,
				"light0Pos": [-0.02, 4.11, -0.54, 0],
				"light0Color": [0.8, 0.8, 0.8, 0],
				"light1Pos": [0.02, -4.11, 0.54, 0],
				"light1Color": [0.64, 0.64, 0.64, 0]				
			},
			"name": "material_mat24"
		},
		"material_mat18": {
			"technique": "technique_mat18",
			"values": {
				"color": [1, 0.8, 0.5333334, 1],
				"roughness": 0.72,
				"metallic": 0,
				"light0Pos": [-0.02, 4.11, -0.54, 0],
				"light0Color": [0.8, 0.8, 0.8, 0],
				"light1Pos": [0.02, -4.11, 0.54, 0],
				"light1Color": [0.64, 0.64, 0.64, 0]				
			},
			"name": "material_mat18"
		}
	},
	"nodes": {
		"node_MeshObject1240888704-PolyGlass24": {
			"name": "node_MeshObject1240888704-PolyGlass24",
			"meshes": [
				"mesh_m0-PolyGlass24_-630812"
			],
			"matrix": [1, 0, 0, 0, 0, 1, 0, 0, 0, 0, 1, 0, 0, 0, 0, 1]
		},
		"node_MeshObject1759608768-PolyPaper18": {
			"name": "node_MeshObject1759608768-PolyPaper18",
			"meshes": [
				"mesh_m1-PolyPaper18_-630814"
			],
			"matrix": [1, 0, 0, 0, 0, 1, 0, 0, 0, 0, 1, 0, 0, 0, 0, 1]
		}
	},
	"scene": "defaultScene",
	"scenes": {
		"defaultScene": {
			"nodes": [
				"node_MeshObject1240888704-PolyGlass24",
				"node_MeshObject1759608768-PolyPaper18"
			],
			"extras": {

			}
		}
	}
}